# xmcd
#
# Track frame offsets: 
#        150
#        12658
#        24321
#        38048
#        50709
#        63007
#        73193
#        84726
#        94860
#        104915
#        116084
#        127842
#        138927
#        151505
#        161845
#        171873
#        181735
#        192112
#        202066
#        215181
#
# Disc length: 3024 seconds
#
# Revision: 0
# Processed by: cddbd v1.5.2PL0 Copyright (c) Steve Scherf et al.
# Submitted via: ExactAudioCopyFreeDBPlugin 1.0
#
DISCID=1f0bce14
DTITLE=James Brown - The Indispensable 1956-1961
DYEAR=1900
DGENRE=Soul
TTITLE0=Please Please Please
TTITLE1=I Feel That Old Feeling Coming On
TTITLE2=Why Do you Do Me (Like You Do)
TTITLE3=I Don't Know
TTITLE4=I Walked Alone
TTITLE5=No, No, No, No
TTITLE6=You're Mine, You're Mine
TTITLE7=Hold My Baby's Hand
TTITLE8=Chonnie-On-Chon
TTITLE9=I Won't Plead No More
TTITLE10=Just Won't Do Right
TTITLE11=Let's Make It
TTITLE12=Gonna Try
TTITLE13=Can't Be The Same
TTITLE14=Messing With The Blues
TTITLE15=Fine Old Foxy Self
TTITLE16=Love Is A Game
TTITLE17=Why Does Everything Happen To Me (Strange things Happen)
TTITLE18=Begging, Begging
TTITLE19=BaBy Cries Over The Ocean
EXTD=
EXTT0=
EXTT1=
EXTT2=
EXTT3=
EXTT4=
EXTT5=
EXTT6=
EXTT7=
EXTT8=
EXTT9=
EXTT10=
EXTT11=
EXTT12=
EXTT13=
EXTT14=
EXTT15=
EXTT16=
EXTT17=
EXTT18=
EXTT19=
PLAYORDER=
